<svg width="521" height="105" viewBox="0 0 521 105" fill="none" xmlns="http://www.w3.org/2000/svg">
<path d="M515.547 12.4362H516.143L517.136 14.0422H517.831L516.838 12.3359C517.334 12.2355 517.632 11.7336 517.632 11.2317C517.632 10.5291 517.136 10.0272 516.441 10.0272H514.951V14.0422H515.547V12.4362ZM515.547 10.5291H516.441C516.738 10.5291 517.036 10.8302 517.036 11.2317C517.036 11.6332 516.738 11.9344 516.441 11.9344H515.547V10.5291Z" fill="#191731"/>
<path d="M516.242 16.0498C518.426 16.0498 520.114 14.243 520.114 12.1351C520.114 10.0272 518.327 8.22049 516.242 8.22049C514.058 8.22049 512.37 10.0272 512.37 12.1351C512.37 14.243 514.058 16.0498 516.242 16.0498ZM516.242 8.62199C518.129 8.62199 519.618 10.1276 519.618 12.0347C519.618 13.9419 518.129 15.4475 516.242 15.4475C514.355 15.4475 512.866 13.9419 512.866 12.0347C512.866 10.1276 514.355 8.62199 516.242 8.62199Z" fill="#191731"/>
<path d="M208.133 54.9953C208.133 27.6933 194.629 5.61072 178.047 5.61072C161.465 5.61072 147.961 27.6933 147.961 54.9953C147.961 82.2974 161.465 104.38 178.047 104.38C194.629 104.38 208.133 82.2974 208.133 54.9953ZM184.997 100.867C176.855 102.172 167.224 82.5985 163.351 57.304C159.479 32.0094 162.954 10.4287 170.997 9.22423C179.139 7.91935 188.77 27.4925 192.643 52.7871C196.615 78.0816 193.139 99.5619 184.997 100.867Z" fill="#191731"/>
<path d="M489.433 5.61072C472.851 5.61072 459.347 27.6933 459.347 54.9953C459.347 82.2974 472.851 104.38 489.433 104.38C506.015 104.38 519.519 82.2974 519.519 54.9953C519.519 27.6933 506.015 5.61072 489.433 5.61072ZM496.383 100.867C488.241 102.172 478.61 82.5985 474.737 57.304C470.865 32.0094 474.34 10.4287 482.383 9.22423C490.525 7.91935 500.156 27.4925 504.029 52.7871C507.901 78.0816 504.426 99.5619 496.383 100.867Z" fill="#191731"/>
<path d="M142.797 90.0263C142.897 89.8255 142.797 89.6248 142.698 89.424L141.705 88.621C141.506 88.4203 141.209 88.4203 141.109 88.621C139.62 90.0263 132.769 95.6473 122.839 88.2195C108.938 77.8809 105.363 55.698 105.363 55.698C100.796 29.3997 104.768 12.7374 114.101 10.3284C117.775 9.42498 121.548 12.3359 121.548 12.3359C123.931 14.4437 126.215 16.9531 128.102 19.5629C130.882 23.3771 133.166 27.4925 135.152 31.4072L137.038 35.2214C137.137 35.4222 137.336 35.5225 137.634 35.4222L139.421 34.7195C139.62 34.6192 139.719 34.5188 139.719 34.318L138.627 9.82649C138.627 9.22423 138.428 8.12011 137.634 7.91936C134.357 7.21673 124.825 5.81148 124.825 5.81148C113.903 4.80772 104.768 8.42123 98.0157 17.3546C98.0157 17.3546 85.9018 32.8124 87.1926 53.289C88.9799 81.5948 103.179 104.781 122.839 104.581C135.152 104.48 141.705 92.1342 142.797 90.0263Z" fill="#191731"/>
<path d="M414.565 4.9081C414.664 5.20922 415.061 5.3096 415.26 5.20922C416.948 4.40622 418.437 4.40622 420.92 5.20922L425.686 6.41373C429.956 7.41748 432.14 4.70735 432.835 1.69609C432.934 1.49534 432.736 1.19422 432.537 1.09384L431.544 0.591964C431.346 0.491588 431.048 0.491588 430.948 0.692339C429.26 2.09759 427.672 2.49909 424.991 1.69609C423.203 1.09384 421.317 0.591964 419.53 0.0900875C419.53 0.0900875 415.955 -0.81329 413.87 3.10134C413.771 3.30209 413.771 3.50285 413.87 3.60322L414.565 4.9081Z" fill="#191731"/>
<path d="M322.519 35.3218L323.413 34.8199C323.81 34.6192 324.009 34.2177 324.009 33.8162C323.512 25.6858 323.214 17.455 322.718 9.22423C322.619 7.7186 321.427 6.61447 319.938 6.61447H296.008H272.078C270.589 6.61447 269.397 7.7186 269.298 9.22423C268.801 17.455 268.503 25.7861 268.007 34.0169C268.007 34.4184 268.206 34.8199 268.603 35.0207L269.596 35.5225C270.092 35.8237 270.688 35.6229 270.986 35.0207L282.405 11.2317C282.504 11.1314 282.603 11.031 282.603 10.9306C284.192 8.22048 287.866 10.228 288.263 12.7374C288.462 14.0422 288.561 15.3471 288.561 16.652C288.561 37.53 288.66 42.4484 288.561 63.3265C288.561 68.4456 288.064 89.5244 287.667 94.6436C287.369 97.4541 286.575 99.1604 284.291 100.566C283.795 100.867 283.695 101.469 283.894 101.971L284.49 103.075C284.688 103.477 285.086 103.677 285.483 103.677H296.107H306.732C307.129 103.677 307.526 103.477 307.725 103.075L308.32 101.971C308.519 101.469 308.42 100.867 307.923 100.566C305.639 99.0601 304.845 97.4541 304.547 94.6436C304.051 89.5244 303.654 68.4456 303.654 63.3265C303.554 42.4484 303.654 37.53 303.654 16.652C303.654 15.3471 303.753 14.0422 303.951 12.7374C304.249 10.228 308.022 8.22048 309.611 10.9306C309.71 11.031 309.81 11.1314 309.81 11.2317L321.229 34.8199C321.328 35.4222 322.023 35.6229 322.519 35.3218Z" fill="#191731"/>
<path d="M351.513 59.2111C351.513 56.9025 351.811 56.7017 354.194 56.7017C359.556 56.8021 364.62 57.8058 368.592 61.9212C370.677 64.1295 371.869 66.3377 372.961 69.1482C373.06 69.4494 373.259 69.6501 373.457 69.8509L374.45 70.3527C374.947 70.5535 375.245 69.9513 375.245 69.5497V55.1961V40.8424C375.245 40.4409 374.947 39.8387 374.45 40.0394L373.457 40.5413C373.259 40.7421 373.06 40.9428 372.961 41.2439C371.968 44.0544 370.776 46.2627 368.592 48.471C364.62 52.5863 359.655 53.5901 354.194 53.6905C351.91 53.6905 351.513 53.4897 351.513 51.1811C351.513 49.7758 351.513 48.4709 351.513 47.0657C351.513 39.5376 351.513 31.3068 351.712 23.6783C351.712 23.6783 351.613 11.031 359.357 9.52536C369.684 7.61823 373.557 18.5591 373.557 18.5591C376.734 23.1764 378.621 29.7008 380.507 35.0207C380.706 35.4222 381.202 35.6229 381.599 35.4222L382.89 34.7195C383.188 34.6192 383.387 34.318 383.287 33.9165C382.692 25.5854 382.195 17.2542 381.599 8.9231C381.5 7.61823 380.408 6.5141 379.117 6.5141H335.428C335.13 6.5141 334.832 6.71485 334.733 6.9156L333.74 8.82273C333.64 9.02348 333.64 9.32461 333.74 9.62573C335.03 11.7336 335.527 14.1426 335.825 16.7524C336.123 19.9644 336.421 23.1764 336.421 26.3884C336.52 42.4484 336.52 58.8096 336.52 74.8696C336.421 78.985 336.222 85.6098 336.123 89.7252C335.924 93.5394 335.626 97.4541 333.541 100.465C333.342 100.666 333.342 101.068 333.442 101.268L334.335 102.975C334.435 103.276 334.733 103.376 335.03 103.376H379.216C380.507 103.376 381.5 102.473 381.699 101.168C382.692 93.7402 383.685 86.212 384.578 78.7843C384.578 78.4831 384.479 78.182 384.181 77.9813L382.791 77.2786C382.394 77.0779 381.897 77.2786 381.699 77.6801C380.11 81.0929 378.521 85.8105 376.734 89.0225C374.351 93.4391 370.975 97.4541 366.109 99.3612C359.06 102.172 352.308 100.666 352.01 91.6323L351.513 59.2111Z" fill="#191731"/>
<path d="M255.595 67.0404C249.439 57.1032 242.985 47.3668 236.63 37.4297C233.651 32.8124 230.97 27.894 229.878 22.3734C229.183 19.1614 229.084 15.9494 230.573 12.8377C232.658 8.72235 236.829 7.81897 240.304 10.8302C240.304 10.8302 247.85 16.4512 253.907 35.2214C254.007 35.6229 254.602 35.8237 254.999 35.6229L256.29 34.9203C256.588 34.8199 256.687 34.5188 256.687 34.1173L255.695 10.0272C255.695 9.3246 255.198 8.22047 254.106 7.91935C247.652 6.51409 241.793 4.80772 234.743 5.81147C224.02 7.41747 216.573 15.6482 216.176 26.4888C215.878 33.0132 218.161 38.7345 221.537 44.0544C227.296 53.0882 233.155 62.0216 238.914 70.955C241.198 74.5685 243.382 78.182 245.269 81.9963C247.056 85.6098 248.049 89.5244 247.354 93.7402C246.162 100.465 239.708 103.276 234.346 99.0601C232.063 97.2533 230.077 94.8443 228.289 92.4353C224.02 86.7139 221.438 78.8846 219.552 73.5648C219.452 73.1633 219.055 72.9625 218.658 73.0629C218.36 73.0629 218.062 73.1632 217.764 73.1632C217.367 73.1632 217.069 73.5648 217.069 73.9663L217.963 97.3537C218.062 99.6623 218.856 100.766 220.942 101.569C230.275 105.083 239.807 105.384 249.141 102.071C259.964 98.2571 264.333 89.0225 260.759 77.9813C259.666 74.167 257.78 70.4531 255.595 67.0404Z" fill="#191731"/>
<path d="M451.999 7.21672C451.899 6.91559 451.602 6.81522 451.304 6.81522H440.481C440.183 6.81522 439.885 7.01597 439.786 7.21672L438.991 8.9231C438.793 9.22422 438.892 9.62573 439.19 9.92685C440.977 11.4325 442.963 13.6407 443.36 16.0497C443.36 16.0497 443.658 19.864 443.658 24.682V64.7317C443.658 65.5347 442.566 65.8359 442.169 65.1332L408.607 8.1201C408.21 7.31709 407.416 6.71484 406.522 6.71484H395.699C395.302 6.71484 395.004 6.91559 394.805 7.21672L394.11 8.5216C393.912 8.9231 394.011 9.42498 394.309 9.7261C395.997 11.2317 396.791 11.9344 397.089 14.6445C397.884 21.7711 398.082 31.106 398.082 31.106L398.281 45.3593L398.579 85.6098C398.479 88.1192 398.479 92.2345 398.38 94.242C398.082 97.4541 395.997 98.4578 393.912 100.365C393.614 100.666 393.614 101.068 393.713 101.369L394.607 103.075C394.706 103.376 395.004 103.477 395.302 103.477H406.125C406.423 103.477 406.721 103.276 406.82 103.075L407.614 101.369C407.813 101.068 407.714 100.666 407.416 100.365C405.628 98.8593 403.643 96.6511 403.245 94.242C403.245 94.242 402.948 90.4278 402.948 85.6098L402.451 32.2102C402.451 31.3068 403.643 30.9053 404.139 31.7083L446.835 104.28C446.935 104.48 447.133 104.581 447.332 104.581H448.027C448.325 104.581 448.523 104.38 448.523 104.079L447.928 24.682C448.027 22.1726 448.027 18.0572 448.126 16.0497C448.424 12.8377 450.509 11.834 452.595 9.92685C452.892 9.62573 452.892 9.22422 452.793 8.9231L451.999 7.21672Z" fill="#191731"/>
<path d="M28.0963 73V48.5" stroke="#191731" stroke-width="7" stroke-linecap="round" stroke-linejoin="round"/>
<path d="M32.0163 17.693C32.9767 17.2265 34.0311 16.9858 35.0987 16.9895C36.1664 16.9931 37.2191 17.2409 38.1763 17.714L65.7073 31.1785C67.3733 31.994 66.7923 34.5 64.9373 34.5H5.25531C3.40031 34.5 2.8228 31.994 4.4853 31.1785L32.0163 17.693Z" stroke="#191731" stroke-width="7" stroke-linecap="round" stroke-linejoin="round"/>
<path d="M42.0963 73V48.5" stroke="#191731" stroke-width="7" stroke-linecap="round" stroke-linejoin="round"/>
<path d="M56.0963 73V48.5" stroke="#191731" stroke-width="7" stroke-linecap="round" stroke-linejoin="round"/>
<path d="M3.59631 87H66.5963" stroke="#191731" stroke-width="7" stroke-linecap="round" stroke-linejoin="round"/>
<path d="M14.0963 73V48.5" stroke="#191731" stroke-width="7" stroke-linecap="round" stroke-linejoin="round"/>
</svg>
